<mxfile host="app.diagrams.net" modified="2024-04-14T16:16:25.016Z" agent="Mozilla/5.0 (Windows NT 10.0; Win64; x64) AppleWebKit/537.36 (KHTML, like Gecko) Chrome/123.0.0.0 Safari/537.36" etag="wKPyZWLa04cQfmkGopqN" version="24.2.5" type="device">
  <diagram name="Page-1" id="YDpm7EfUB-LVqQbUf0rT">
    <mxGraphModel dx="3500" dy="2957" grid="1" gridSize="10" guides="1" tooltips="1" connect="1" arrows="1" fold="1" page="1" pageScale="1" pageWidth="850" pageHeight="1100" math="0" shadow="0">
      <root>
        <mxCell id="0" />
        <mxCell id="1" parent="0" />
        <mxCell id="X7L6hgSxwBVtEqUktsaV-165" value="" style="rounded=0;whiteSpace=wrap;html=1;" vertex="1" parent="1">
          <mxGeometry x="425" y="-720" width="725" height="440" as="geometry" />
        </mxCell>
        <mxCell id="X7L6hgSxwBVtEqUktsaV-4" value="" style="rounded=0;whiteSpace=wrap;html=1;" vertex="1" parent="1">
          <mxGeometry x="20" y="100" width="270" height="290" as="geometry" />
        </mxCell>
        <mxCell id="X7L6hgSxwBVtEqUktsaV-121" value="" style="rounded=0;whiteSpace=wrap;html=1;" vertex="1" parent="1">
          <mxGeometry x="80" y="170" width="130" height="170" as="geometry" />
        </mxCell>
        <mxCell id="X7L6hgSxwBVtEqUktsaV-1" value="" style="image;sketch=0;aspect=fixed;html=1;points=[];align=center;fontSize=12;image=img/lib/mscae/Docker.svg;" vertex="1" parent="1">
          <mxGeometry x="30" y="115" width="36.59" height="30" as="geometry" />
        </mxCell>
        <mxCell id="X7L6hgSxwBVtEqUktsaV-6" value="&lt;font style=&quot;font-size: 23px;&quot;&gt;Docker Registry&lt;/font&gt;" style="text;html=1;align=center;verticalAlign=middle;whiteSpace=wrap;rounded=0;" vertex="1" parent="1">
          <mxGeometry x="66.58999999999997" y="120" width="250" height="20" as="geometry" />
        </mxCell>
        <mxCell id="X7L6hgSxwBVtEqUktsaV-9" value="&lt;font style=&quot;font-size: 17px;&quot;&gt;l3002&lt;/font&gt;" style="text;html=1;align=center;verticalAlign=middle;whiteSpace=wrap;rounded=0;" vertex="1" parent="1">
          <mxGeometry x="140" y="190" width="60" height="30" as="geometry" />
        </mxCell>
        <mxCell id="X7L6hgSxwBVtEqUktsaV-11" value="" style="sketch=0;outlineConnect=0;fontColor=#232F3E;gradientColor=none;fillColor=#232F3D;strokeColor=none;dashed=0;verticalLabelPosition=bottom;verticalAlign=top;align=center;html=1;fontSize=12;fontStyle=0;aspect=fixed;pointerEvents=1;shape=mxgraph.aws4.user;" vertex="1" parent="1">
          <mxGeometry x="112" y="190" width="28" height="28" as="geometry" />
        </mxCell>
        <mxCell id="X7L6hgSxwBVtEqUktsaV-40" value="AWS Cloud" style="points=[[0,0],[0.25,0],[0.5,0],[0.75,0],[1,0],[1,0.25],[1,0.5],[1,0.75],[1,1],[0.75,1],[0.5,1],[0.25,1],[0,1],[0,0.75],[0,0.5],[0,0.25]];outlineConnect=0;gradientColor=none;html=1;whiteSpace=wrap;fontSize=12;fontStyle=0;container=1;pointerEvents=0;collapsible=0;recursiveResize=0;shape=mxgraph.aws4.group;grIcon=mxgraph.aws4.group_aws_cloud_alt;strokeColor=#232F3E;fillColor=none;verticalAlign=top;align=left;spacingLeft=30;fontColor=#232F3E;dashed=0;" vertex="1" parent="1">
          <mxGeometry x="430" y="-190" width="1540" height="830" as="geometry" />
        </mxCell>
        <mxCell id="X7L6hgSxwBVtEqUktsaV-44" style="edgeStyle=orthogonalEdgeStyle;rounded=0;orthogonalLoop=1;jettySize=auto;html=1;exitX=1;exitY=0.5;exitDx=0;exitDy=0;entryX=0;entryY=0.5;entryDx=0;entryDy=0;shape=link;" edge="1" parent="X7L6hgSxwBVtEqUktsaV-40" source="X7L6hgSxwBVtEqUktsaV-42" target="X7L6hgSxwBVtEqUktsaV-43">
          <mxGeometry relative="1" as="geometry" />
        </mxCell>
        <mxCell id="X7L6hgSxwBVtEqUktsaV-42" value="EC2 instance contents" style="points=[[0,0],[0.25,0],[0.5,0],[0.75,0],[1,0],[1,0.25],[1,0.5],[1,0.75],[1,1],[0.75,1],[0.5,1],[0.25,1],[0,1],[0,0.75],[0,0.5],[0,0.25]];outlineConnect=0;gradientColor=none;html=1;whiteSpace=wrap;fontSize=12;fontStyle=0;container=1;pointerEvents=0;collapsible=0;recursiveResize=0;shape=mxgraph.aws4.group;grIcon=mxgraph.aws4.group_ec2_instance_contents;strokeColor=#D86613;fillColor=none;verticalAlign=top;align=left;spacingLeft=30;fontColor=#D86613;dashed=0;" vertex="1" parent="X7L6hgSxwBVtEqUktsaV-40">
          <mxGeometry x="60" y="55.46" width="460" height="374.54" as="geometry" />
        </mxCell>
        <mxCell id="X7L6hgSxwBVtEqUktsaV-188" value="" style="whiteSpace=wrap;html=1;shape=mxgraph.basic.document" vertex="1" parent="X7L6hgSxwBVtEqUktsaV-42">
          <mxGeometry x="332.5" y="184.54" width="57.5" height="64.54" as="geometry" />
        </mxCell>
        <mxCell id="X7L6hgSxwBVtEqUktsaV-190" value="/etc/ansible/ansible.cfg" style="text;html=1;align=center;verticalAlign=middle;whiteSpace=wrap;rounded=0;" vertex="1" parent="X7L6hgSxwBVtEqUktsaV-42">
          <mxGeometry x="330" y="260" width="60" height="30" as="geometry" />
        </mxCell>
        <mxCell id="X7L6hgSxwBVtEqUktsaV-191" value="" style="rounded=0;whiteSpace=wrap;html=1;" vertex="1" parent="X7L6hgSxwBVtEqUktsaV-42">
          <mxGeometry x="30" y="54.54" width="250" height="265.46" as="geometry" />
        </mxCell>
        <mxCell id="X7L6hgSxwBVtEqUktsaV-192" value="" style="sketch=0;outlineConnect=0;fontColor=#232F3E;gradientColor=none;fillColor=#232F3D;strokeColor=none;dashed=0;verticalLabelPosition=bottom;verticalAlign=top;align=center;html=1;fontSize=12;fontStyle=0;aspect=fixed;pointerEvents=1;shape=mxgraph.aws4.git_repository;" vertex="1" parent="X7L6hgSxwBVtEqUktsaV-42">
          <mxGeometry x="40" y="63.08" width="28.4" height="36.92" as="geometry" />
        </mxCell>
        <mxCell id="X7L6hgSxwBVtEqUktsaV-193" value="" style="verticalLabelPosition=bottom;html=1;verticalAlign=top;align=center;strokeColor=none;fillColor=#00BEF2;shape=mxgraph.azure.cloud_services_configuration_file;pointerEvents=1;" vertex="1" parent="X7L6hgSxwBVtEqUktsaV-42">
          <mxGeometry x="90" y="194.54" width="50" height="65.46" as="geometry" />
        </mxCell>
        <mxCell id="X7L6hgSxwBVtEqUktsaV-194" value="" style="verticalLabelPosition=bottom;html=1;verticalAlign=top;align=center;strokeColor=none;fillColor=#00BEF2;shape=mxgraph.azure.cloud_services_configuration_file;pointerEvents=1;" vertex="1" parent="X7L6hgSxwBVtEqUktsaV-42">
          <mxGeometry x="180" y="194.54" width="50" height="65.46" as="geometry" />
        </mxCell>
        <mxCell id="X7L6hgSxwBVtEqUktsaV-200" value="Inventory" style="sketch=0;outlineConnect=0;fontColor=#232F3E;gradientColor=none;strokeColor=#232F3E;fillColor=#ffffff;dashed=0;verticalLabelPosition=bottom;verticalAlign=top;align=center;html=1;fontSize=12;fontStyle=0;aspect=fixed;shape=mxgraph.aws4.resourceIcon;resIcon=mxgraph.aws4.inventory;" vertex="1" parent="X7L6hgSxwBVtEqUktsaV-42">
          <mxGeometry x="130" y="84.54" width="55.46" height="55.46" as="geometry" />
        </mxCell>
        <mxCell id="X7L6hgSxwBVtEqUktsaV-201" value="&lt;font style=&quot;font-size: 13px;&quot;&gt;Playbook 1&lt;/font&gt;" style="text;html=1;align=center;verticalAlign=middle;whiteSpace=wrap;rounded=0;" vertex="1" parent="X7L6hgSxwBVtEqUktsaV-42">
          <mxGeometry x="60.710000000000036" y="264.53999999999996" width="110" height="30" as="geometry" />
        </mxCell>
        <mxCell id="X7L6hgSxwBVtEqUktsaV-202" value="&lt;font style=&quot;font-size: 13px;&quot;&gt;Playbook 2&lt;/font&gt;" style="text;html=1;align=center;verticalAlign=middle;whiteSpace=wrap;rounded=0;" vertex="1" parent="X7L6hgSxwBVtEqUktsaV-42">
          <mxGeometry x="150" y="264.53999999999996" width="110" height="30" as="geometry" />
        </mxCell>
        <mxCell id="X7L6hgSxwBVtEqUktsaV-43" value="EC2 instance contents" style="points=[[0,0],[0.25,0],[0.5,0],[0.75,0],[1,0],[1,0.25],[1,0.5],[1,0.75],[1,1],[0.75,1],[0.5,1],[0.25,1],[0,1],[0,0.75],[0,0.5],[0,0.25]];outlineConnect=0;gradientColor=none;html=1;whiteSpace=wrap;fontSize=12;fontStyle=0;container=1;pointerEvents=0;collapsible=0;recursiveResize=0;shape=mxgraph.aws4.group;grIcon=mxgraph.aws4.group_ec2_instance_contents;strokeColor=#D86613;fillColor=none;verticalAlign=top;align=left;spacingLeft=30;fontColor=#D86613;dashed=0;" vertex="1" parent="X7L6hgSxwBVtEqUktsaV-40">
          <mxGeometry x="630" y="60" width="790" height="730" as="geometry" />
        </mxCell>
        <mxCell id="X7L6hgSxwBVtEqUktsaV-87" value="" style="rounded=0;whiteSpace=wrap;html=1;" vertex="1" parent="X7L6hgSxwBVtEqUktsaV-43">
          <mxGeometry x="500" y="300" width="220" height="200" as="geometry" />
        </mxCell>
        <mxCell id="X7L6hgSxwBVtEqUktsaV-115" value="" style="rounded=0;whiteSpace=wrap;html=1;" vertex="1" parent="X7L6hgSxwBVtEqUktsaV-43">
          <mxGeometry x="540" y="370" width="160" height="110" as="geometry" />
        </mxCell>
        <mxCell id="X7L6hgSxwBVtEqUktsaV-52" value="" style="rounded=0;whiteSpace=wrap;html=1;" vertex="1" parent="X7L6hgSxwBVtEqUktsaV-43">
          <mxGeometry x="180" y="290" width="240" height="260" as="geometry" />
        </mxCell>
        <mxCell id="X7L6hgSxwBVtEqUktsaV-53" value="" style="sketch=0;outlineConnect=0;fontColor=#232F3E;gradientColor=none;strokeColor=#232F3E;fillColor=#ffffff;dashed=0;verticalLabelPosition=bottom;verticalAlign=top;align=center;html=1;fontSize=12;fontStyle=0;aspect=fixed;shape=mxgraph.aws4.resourceIcon;resIcon=mxgraph.aws4.container_1;" vertex="1" parent="X7L6hgSxwBVtEqUktsaV-43">
          <mxGeometry x="187" y="300" width="41.46" height="41.46" as="geometry" />
        </mxCell>
        <mxCell id="X7L6hgSxwBVtEqUktsaV-66" style="edgeStyle=orthogonalEdgeStyle;rounded=0;orthogonalLoop=1;jettySize=auto;html=1;exitX=0;exitY=0.5;exitDx=0;exitDy=0;entryX=0.5;entryY=0;entryDx=0;entryDy=0;" edge="1" parent="X7L6hgSxwBVtEqUktsaV-43" source="X7L6hgSxwBVtEqUktsaV-55" target="X7L6hgSxwBVtEqUktsaV-63">
          <mxGeometry relative="1" as="geometry" />
        </mxCell>
        <mxCell id="X7L6hgSxwBVtEqUktsaV-55" value="Port 22" style="fontStyle=0;labelPosition=right;verticalLabelPosition=middle;align=left;verticalAlign=middle;spacingLeft=2;" vertex="1" parent="X7L6hgSxwBVtEqUktsaV-43">
          <mxGeometry x="192.73000000000002" y="350" width="30" height="30" as="geometry" />
        </mxCell>
        <mxCell id="X7L6hgSxwBVtEqUktsaV-68" style="edgeStyle=orthogonalEdgeStyle;rounded=0;orthogonalLoop=1;jettySize=auto;html=1;entryX=0.5;entryY=1;entryDx=0;entryDy=0;" edge="1" parent="X7L6hgSxwBVtEqUktsaV-43" source="X7L6hgSxwBVtEqUktsaV-60" target="X7L6hgSxwBVtEqUktsaV-55">
          <mxGeometry relative="1" as="geometry" />
        </mxCell>
        <mxCell id="X7L6hgSxwBVtEqUktsaV-60" value="" style="sketch=0;outlineConnect=0;fontColor=#232F3E;gradientColor=none;fillColor=#232F3D;strokeColor=none;dashed=0;verticalLabelPosition=bottom;verticalAlign=top;align=center;html=1;fontSize=12;fontStyle=0;aspect=fixed;pointerEvents=1;shape=mxgraph.aws4.gear;" vertex="1" parent="X7L6hgSxwBVtEqUktsaV-43">
          <mxGeometry x="330" y="310" width="60" height="60" as="geometry" />
        </mxCell>
        <mxCell id="X7L6hgSxwBVtEqUktsaV-63" value="Port 9001" style="fontStyle=0;labelPosition=right;verticalLabelPosition=middle;align=left;verticalAlign=middle;spacingLeft=2;" vertex="1" parent="X7L6hgSxwBVtEqUktsaV-43">
          <mxGeometry x="40" y="430" width="30" height="30" as="geometry" />
        </mxCell>
        <mxCell id="X7L6hgSxwBVtEqUktsaV-64" value="Port 9000" style="fontStyle=0;labelPosition=right;verticalLabelPosition=middle;align=left;verticalAlign=middle;spacingLeft=2;" vertex="1" parent="X7L6hgSxwBVtEqUktsaV-43">
          <mxGeometry x="40" y="220" width="30" height="30" as="geometry" />
        </mxCell>
        <mxCell id="X7L6hgSxwBVtEqUktsaV-67" value="&lt;font style=&quot;font-size: 12px;&quot;&gt;SSH Service&lt;/font&gt;" style="text;html=1;align=center;verticalAlign=middle;whiteSpace=wrap;rounded=0;" vertex="1" parent="X7L6hgSxwBVtEqUktsaV-43">
          <mxGeometry x="310" y="370" width="110" height="30" as="geometry" />
        </mxCell>
        <mxCell id="X7L6hgSxwBVtEqUktsaV-69" value="" style="rounded=0;whiteSpace=wrap;html=1;" vertex="1" parent="X7L6hgSxwBVtEqUktsaV-43">
          <mxGeometry x="180" y="20" width="240" height="250" as="geometry" />
        </mxCell>
        <mxCell id="X7L6hgSxwBVtEqUktsaV-70" value="" style="sketch=0;outlineConnect=0;fontColor=#232F3E;gradientColor=none;strokeColor=#232F3E;fillColor=#ffffff;dashed=0;verticalLabelPosition=bottom;verticalAlign=top;align=center;html=1;fontSize=12;fontStyle=0;aspect=fixed;shape=mxgraph.aws4.resourceIcon;resIcon=mxgraph.aws4.container_1;" vertex="1" parent="X7L6hgSxwBVtEqUktsaV-43">
          <mxGeometry x="194" y="30" width="41.46" height="41.46" as="geometry" />
        </mxCell>
        <mxCell id="X7L6hgSxwBVtEqUktsaV-84" style="edgeStyle=orthogonalEdgeStyle;rounded=0;orthogonalLoop=1;jettySize=auto;html=1;exitX=0;exitY=0.5;exitDx=0;exitDy=0;entryX=0.5;entryY=0;entryDx=0;entryDy=0;" edge="1" parent="X7L6hgSxwBVtEqUktsaV-43" source="X7L6hgSxwBVtEqUktsaV-71" target="X7L6hgSxwBVtEqUktsaV-64">
          <mxGeometry relative="1" as="geometry" />
        </mxCell>
        <mxCell id="X7L6hgSxwBVtEqUktsaV-71" value="Port 22" style="fontStyle=0;labelPosition=right;verticalLabelPosition=middle;align=left;verticalAlign=middle;spacingLeft=2;" vertex="1" parent="X7L6hgSxwBVtEqUktsaV-43">
          <mxGeometry x="199.73000000000002" y="80" width="30" height="30" as="geometry" />
        </mxCell>
        <mxCell id="X7L6hgSxwBVtEqUktsaV-72" style="edgeStyle=orthogonalEdgeStyle;rounded=0;orthogonalLoop=1;jettySize=auto;html=1;entryX=0.5;entryY=1;entryDx=0;entryDy=0;" edge="1" source="X7L6hgSxwBVtEqUktsaV-73" target="X7L6hgSxwBVtEqUktsaV-71" parent="X7L6hgSxwBVtEqUktsaV-43">
          <mxGeometry relative="1" as="geometry" />
        </mxCell>
        <mxCell id="X7L6hgSxwBVtEqUktsaV-73" value="" style="sketch=0;outlineConnect=0;fontColor=#232F3E;gradientColor=none;fillColor=#232F3D;strokeColor=none;dashed=0;verticalLabelPosition=bottom;verticalAlign=top;align=center;html=1;fontSize=12;fontStyle=0;aspect=fixed;pointerEvents=1;shape=mxgraph.aws4.gear;" vertex="1" parent="X7L6hgSxwBVtEqUktsaV-43">
          <mxGeometry x="337" y="40" width="60" height="60" as="geometry" />
        </mxCell>
        <mxCell id="X7L6hgSxwBVtEqUktsaV-74" value="&lt;font style=&quot;font-size: 12px;&quot;&gt;SSH Service&lt;/font&gt;" style="text;html=1;align=center;verticalAlign=middle;whiteSpace=wrap;rounded=0;" vertex="1" parent="X7L6hgSxwBVtEqUktsaV-43">
          <mxGeometry x="317" y="100" width="110" height="30" as="geometry" />
        </mxCell>
        <mxCell id="X7L6hgSxwBVtEqUktsaV-90" style="edgeStyle=orthogonalEdgeStyle;rounded=0;orthogonalLoop=1;jettySize=auto;html=1;exitX=0;exitY=0.5;exitDx=0;exitDy=0;entryX=1;entryY=0.5;entryDx=0;entryDy=0;" edge="1" parent="X7L6hgSxwBVtEqUktsaV-43" source="X7L6hgSxwBVtEqUktsaV-87" target="X7L6hgSxwBVtEqUktsaV-74">
          <mxGeometry relative="1" as="geometry" />
        </mxCell>
        <mxCell id="X7L6hgSxwBVtEqUktsaV-107" style="edgeStyle=orthogonalEdgeStyle;rounded=0;orthogonalLoop=1;jettySize=auto;html=1;entryX=1;entryY=0.75;entryDx=0;entryDy=0;exitX=0;exitY=0.5;exitDx=0;exitDy=0;" edge="1" parent="X7L6hgSxwBVtEqUktsaV-43" source="X7L6hgSxwBVtEqUktsaV-87">
          <mxGeometry relative="1" as="geometry">
            <mxPoint x="500" y="365" as="sourcePoint" />
            <mxPoint x="420" y="417.5" as="targetPoint" />
            <Array as="points">
              <mxPoint x="460" y="390" />
              <mxPoint x="460" y="418" />
            </Array>
          </mxGeometry>
        </mxCell>
        <mxCell id="X7L6hgSxwBVtEqUktsaV-96" value="" style="image;sketch=0;aspect=fixed;html=1;points=[];align=center;fontSize=12;image=img/lib/mscae/Docker.svg;" vertex="1" parent="X7L6hgSxwBVtEqUktsaV-43">
          <mxGeometry x="510" y="309" width="50" height="41" as="geometry" />
        </mxCell>
        <mxCell id="X7L6hgSxwBVtEqUktsaV-97" value="&lt;font style=&quot;font-size: 16px;&quot;&gt;Docker Engine&lt;/font&gt;" style="text;html=1;align=center;verticalAlign=middle;whiteSpace=wrap;rounded=0;" vertex="1" parent="X7L6hgSxwBVtEqUktsaV-43">
          <mxGeometry x="570" y="309" width="120" height="50" as="geometry" />
        </mxCell>
        <mxCell id="X7L6hgSxwBVtEqUktsaV-103" value="&lt;font style=&quot;font-size: 19px;&quot;&gt;Container 1&lt;/font&gt;" style="text;html=1;align=center;verticalAlign=middle;whiteSpace=wrap;rounded=0;" vertex="1" parent="X7L6hgSxwBVtEqUktsaV-43">
          <mxGeometry x="290" y="500" width="130" height="30" as="geometry" />
        </mxCell>
        <mxCell id="X7L6hgSxwBVtEqUktsaV-105" value="&lt;font style=&quot;font-size: 19px;&quot;&gt;Container 2&lt;/font&gt;" style="text;html=1;align=center;verticalAlign=middle;whiteSpace=wrap;rounded=0;" vertex="1" parent="X7L6hgSxwBVtEqUktsaV-43">
          <mxGeometry x="290" y="230" width="120" height="30" as="geometry" />
        </mxCell>
        <mxCell id="X7L6hgSxwBVtEqUktsaV-109" value="&lt;font style=&quot;font-size: 19px;&quot;&gt;Ansible User&lt;/font&gt;" style="sketch=0;outlineConnect=0;fontColor=#232F3E;gradientColor=none;strokeColor=#232F3E;fillColor=#ffffff;dashed=0;verticalLabelPosition=bottom;verticalAlign=top;align=center;html=1;fontSize=12;fontStyle=0;aspect=fixed;shape=mxgraph.aws4.resourceIcon;resIcon=mxgraph.aws4.user;" vertex="1" parent="X7L6hgSxwBVtEqUktsaV-43">
          <mxGeometry x="615" y="50" width="90" height="90" as="geometry" />
        </mxCell>
        <mxCell id="X7L6hgSxwBVtEqUktsaV-112" value="" style="image;aspect=fixed;html=1;points=[];align=center;fontSize=12;image=img/lib/azure2/compute/Images.svg;" vertex="1" parent="X7L6hgSxwBVtEqUktsaV-43">
          <mxGeometry x="560" y="408" width="36.66" height="34" as="geometry" />
        </mxCell>
        <mxCell id="X7L6hgSxwBVtEqUktsaV-113" value="&lt;font style=&quot;font-size: 10px;&quot;&gt;l3002/sshd&lt;/font&gt;" style="text;html=1;align=center;verticalAlign=middle;whiteSpace=wrap;rounded=0;" vertex="1" parent="X7L6hgSxwBVtEqUktsaV-43">
          <mxGeometry x="568.22" y="440" width="21.78" height="30" as="geometry" />
        </mxCell>
        <mxCell id="X7L6hgSxwBVtEqUktsaV-116" value="Docker Images" style="text;html=1;align=center;verticalAlign=middle;whiteSpace=wrap;rounded=0;" vertex="1" parent="X7L6hgSxwBVtEqUktsaV-43">
          <mxGeometry x="630" y="408" width="60" height="30" as="geometry" />
        </mxCell>
        <mxCell id="X7L6hgSxwBVtEqUktsaV-123" value="&lt;font style=&quot;font-size: 11px;&quot;&gt;Ansible User&lt;/font&gt;" style="sketch=0;outlineConnect=0;fontColor=#232F3E;gradientColor=none;strokeColor=#232F3E;fillColor=#ffffff;dashed=0;verticalLabelPosition=bottom;verticalAlign=top;align=center;html=1;fontSize=12;fontStyle=0;aspect=fixed;shape=mxgraph.aws4.resourceIcon;resIcon=mxgraph.aws4.user;" vertex="1" parent="X7L6hgSxwBVtEqUktsaV-43">
          <mxGeometry x="215" y="442" width="50" height="50" as="geometry" />
        </mxCell>
        <mxCell id="X7L6hgSxwBVtEqUktsaV-159" value="&lt;font style=&quot;font-size: 11px;&quot;&gt;Ansible User&lt;/font&gt;" style="sketch=0;outlineConnect=0;fontColor=#232F3E;gradientColor=none;strokeColor=#232F3E;fillColor=#ffffff;dashed=0;verticalLabelPosition=bottom;verticalAlign=top;align=center;html=1;fontSize=12;fontStyle=0;aspect=fixed;shape=mxgraph.aws4.resourceIcon;resIcon=mxgraph.aws4.user;" vertex="1" parent="X7L6hgSxwBVtEqUktsaV-43">
          <mxGeometry x="222.73000000000002" y="170" width="50" height="50" as="geometry" />
        </mxCell>
        <mxCell id="X7L6hgSxwBVtEqUktsaV-161" value="" style="sketch=0;outlineConnect=0;fontColor=#232F3E;gradientColor=none;fillColor=#232F3D;strokeColor=none;dashed=0;verticalLabelPosition=bottom;verticalAlign=top;align=center;html=1;fontSize=12;fontStyle=0;aspect=fixed;pointerEvents=1;shape=mxgraph.aws4.gear;" vertex="1" parent="X7L6hgSxwBVtEqUktsaV-43">
          <mxGeometry x="60" y="610" width="60" height="60" as="geometry" />
        </mxCell>
        <mxCell id="X7L6hgSxwBVtEqUktsaV-162" value="&lt;font style=&quot;font-size: 12px;&quot;&gt;SSH Service&lt;/font&gt;" style="text;html=1;align=center;verticalAlign=middle;whiteSpace=wrap;rounded=0;" vertex="1" parent="X7L6hgSxwBVtEqUktsaV-43">
          <mxGeometry x="35" y="680" width="110" height="30" as="geometry" />
        </mxCell>
        <mxCell id="X7L6hgSxwBVtEqUktsaV-197" value="" style="sketch=0;outlineConnect=0;fontColor=#232F3E;gradientColor=none;fillColor=#232F3D;strokeColor=none;dashed=0;verticalLabelPosition=bottom;verticalAlign=top;align=center;html=1;fontSize=12;fontStyle=0;aspect=fixed;pointerEvents=1;shape=mxgraph.aws4.gear;" vertex="1" parent="X7L6hgSxwBVtEqUktsaV-43">
          <mxGeometry x="194" y="610" width="60" height="60" as="geometry" />
        </mxCell>
        <mxCell id="X7L6hgSxwBVtEqUktsaV-199" value="&lt;font style=&quot;font-size: 13px;&quot;&gt;containerd Service&lt;/font&gt;" style="text;html=1;align=center;verticalAlign=middle;whiteSpace=wrap;rounded=0;" vertex="1" parent="X7L6hgSxwBVtEqUktsaV-43">
          <mxGeometry x="155" y="680" width="145" height="30" as="geometry" />
        </mxCell>
        <mxCell id="X7L6hgSxwBVtEqUktsaV-101" style="edgeStyle=orthogonalEdgeStyle;rounded=0;orthogonalLoop=1;jettySize=auto;html=1;entryX=0.5;entryY=1;entryDx=0;entryDy=0;shape=link;" edge="1" parent="X7L6hgSxwBVtEqUktsaV-40" source="X7L6hgSxwBVtEqUktsaV-64" target="X7L6hgSxwBVtEqUktsaV-42">
          <mxGeometry relative="1" as="geometry">
            <Array as="points">
              <mxPoint x="650" y="355" />
              <mxPoint x="650" y="460" />
              <mxPoint x="290" y="460" />
            </Array>
          </mxGeometry>
        </mxCell>
        <mxCell id="X7L6hgSxwBVtEqUktsaV-102" style="edgeStyle=orthogonalEdgeStyle;rounded=0;orthogonalLoop=1;jettySize=auto;html=1;entryX=0.25;entryY=1;entryDx=0;entryDy=0;shape=link;" edge="1" parent="X7L6hgSxwBVtEqUktsaV-40" source="X7L6hgSxwBVtEqUktsaV-63" target="X7L6hgSxwBVtEqUktsaV-42">
          <mxGeometry relative="1" as="geometry" />
        </mxCell>
        <mxCell id="X7L6hgSxwBVtEqUktsaV-118" style="edgeStyle=orthogonalEdgeStyle;rounded=0;orthogonalLoop=1;jettySize=auto;html=1;" edge="1" parent="1" source="X7L6hgSxwBVtEqUktsaV-113">
          <mxGeometry relative="1" as="geometry">
            <mxPoint x="147" y="340" as="targetPoint" />
            <Array as="points">
              <mxPoint x="1639" y="700" />
              <mxPoint x="147" y="700" />
            </Array>
          </mxGeometry>
        </mxCell>
        <mxCell id="X7L6hgSxwBVtEqUktsaV-119" value="" style="image;aspect=fixed;html=1;points=[];align=center;fontSize=12;image=img/lib/azure2/compute/Images.svg;" vertex="1" parent="1">
          <mxGeometry x="123.44" y="250" width="43.13" height="40" as="geometry" />
        </mxCell>
        <mxCell id="X7L6hgSxwBVtEqUktsaV-120" value="&lt;font style=&quot;font-size: 10px;&quot;&gt;l3002/sshd&lt;/font&gt;" style="text;html=1;align=center;verticalAlign=middle;whiteSpace=wrap;rounded=0;" vertex="1" parent="1">
          <mxGeometry x="134.11000000000007" y="290" width="21.78" height="30" as="geometry" />
        </mxCell>
        <mxCell id="X7L6hgSxwBVtEqUktsaV-163" value="" style="verticalLabelPosition=bottom;html=1;verticalAlign=top;align=center;strokeColor=none;fillColor=#00BEF2;shape=mxgraph.azure.github_code;pointerEvents=1;" vertex="1" parent="1">
          <mxGeometry x="652.5" y="-695" width="40" height="40" as="geometry" />
        </mxCell>
        <mxCell id="X7L6hgSxwBVtEqUktsaV-166" value="&lt;font style=&quot;font-size: 35px;&quot;&gt;Github&lt;/font&gt;" style="text;html=1;align=center;verticalAlign=middle;whiteSpace=wrap;rounded=0;" vertex="1" parent="1">
          <mxGeometry x="692.5" y="-690" width="180" height="30" as="geometry" />
        </mxCell>
        <mxCell id="X7L6hgSxwBVtEqUktsaV-168" value="" style="rounded=0;whiteSpace=wrap;html=1;" vertex="1" parent="1">
          <mxGeometry x="490" y="-610" width="340" height="260" as="geometry" />
        </mxCell>
        <mxCell id="X7L6hgSxwBVtEqUktsaV-170" value="&lt;span style=&quot;font-size: 19px;&quot;&gt;Student&lt;/span&gt;" style="sketch=0;outlineConnect=0;fontColor=#232F3E;gradientColor=none;strokeColor=#232F3E;fillColor=#ffffff;dashed=0;verticalLabelPosition=bottom;verticalAlign=top;align=center;html=1;fontSize=12;fontStyle=0;aspect=fixed;shape=mxgraph.aws4.resourceIcon;resIcon=mxgraph.aws4.user;" vertex="1" parent="1">
          <mxGeometry x="960" y="-650" width="77.5" height="77.5" as="geometry" />
        </mxCell>
        <mxCell id="X7L6hgSxwBVtEqUktsaV-171" value="" style="rounded=0;whiteSpace=wrap;html=1;" vertex="1" parent="1">
          <mxGeometry x="515" y="-530" width="290" height="152.5" as="geometry" />
        </mxCell>
        <mxCell id="X7L6hgSxwBVtEqUktsaV-173" value="" style="sketch=0;outlineConnect=0;fontColor=#232F3E;gradientColor=none;fillColor=#232F3D;strokeColor=none;dashed=0;verticalLabelPosition=bottom;verticalAlign=top;align=center;html=1;fontSize=12;fontStyle=0;aspect=fixed;pointerEvents=1;shape=mxgraph.aws4.git_repository;" vertex="1" parent="1">
          <mxGeometry x="535.77" y="-473.5" width="43.46" height="56.5" as="geometry" />
        </mxCell>
        <mxCell id="X7L6hgSxwBVtEqUktsaV-174" value="&lt;font style=&quot;font-size: 19px;&quot;&gt;docker-ansible remote&lt;/font&gt;" style="text;html=1;align=center;verticalAlign=middle;whiteSpace=wrap;rounded=0;" vertex="1" parent="1">
          <mxGeometry x="630" y="-460.25" width="137.5" height="30" as="geometry" />
        </mxCell>
        <mxCell id="X7L6hgSxwBVtEqUktsaV-183" value="&lt;font style=&quot;font-size: 20px;&quot;&gt;Respositories&lt;/font&gt;" style="text;html=1;align=center;verticalAlign=middle;whiteSpace=wrap;rounded=0;" vertex="1" parent="1">
          <mxGeometry x="579.23" y="-590" width="160" height="40" as="geometry" />
        </mxCell>
        <mxCell id="X7L6hgSxwBVtEqUktsaV-185" value="" style="verticalLabelPosition=bottom;html=1;verticalAlign=top;align=center;strokeColor=none;fillColor=#00BEF2;shape=mxgraph.azure.access_control;" vertex="1" parent="1">
          <mxGeometry x="955.63" y="-490.5" width="86.25" height="90.5" as="geometry" />
        </mxCell>
        <mxCell id="X7L6hgSxwBVtEqUktsaV-186" value="&lt;font style=&quot;font-size: 16px;&quot;&gt;Personal Access Token&lt;/font&gt;" style="text;html=1;align=center;verticalAlign=middle;whiteSpace=wrap;rounded=0;" vertex="1" parent="1">
          <mxGeometry x="933.13" y="-390" width="131.25" height="50" as="geometry" />
        </mxCell>
        <mxCell id="X7L6hgSxwBVtEqUktsaV-204" style="edgeStyle=orthogonalEdgeStyle;rounded=0;orthogonalLoop=1;jettySize=auto;html=1;entryX=0.447;entryY=1.014;entryDx=0;entryDy=0;entryPerimeter=0;" edge="1" parent="1" source="X7L6hgSxwBVtEqUktsaV-191" target="X7L6hgSxwBVtEqUktsaV-171">
          <mxGeometry relative="1" as="geometry" />
        </mxCell>
      </root>
    </mxGraphModel>
  </diagram>
</mxfile>
